<svg id="Livello_1" data-name="Livello 1" xmlns="http://www.w3.org/2000/svg" width="75" height="23" viewBox="0 0 75 23">
  <defs>
    <style>
      .cls-1 {
        fill: red;
      }
    </style>
  </defs>
  <title>boolflix</title>
  <g>
    <path class="cls-1" d="M5.335,3.0057a3.7578,3.7578,0,0,1,3.2181.4853A3.8209,3.8209,0,0,1,9.55,6.4773v0.65A5.8056,5.8056,0,0,1,9.11,9.5115a3.5689,3.5689,0,0,1-1.3972,1.58,2.2672,2.2672,0,0,1,1.6432,1.1754,5.1707,5.1707,0,0,1,.4791,2.3818v1.4819a5.0459,5.0459,0,0,1-1.0873,3.3835,5.2958,5.2958,0,0,1-3.2317,1.6585q-2.2337.4037-4.4593,0.8645v-18.2Q3.1919,3.3952,5.335,3.0057ZM3.89,5.8746v4.81Q4.4445,10.5791,5,10.4771a2.1629,2.1629,0,0,0,1.2522-.6415,2.3107,2.3107,0,0,0,.4523-1.587V7.2344a2.0439,2.0439,0,0,0-.3489-1.3692A1.1288,1.1288,0,0,0,5.2574,5.62Q4.5733,5.7446,3.89,5.8746Zm0,7.41v5.59q0.8124-.1546,1.626-0.3016a1.7682,1.7682,0,0,0,1.0979-.585,2.3081,2.3081,0,0,0,.3747-1.4687V14.9333a2.3241,2.3241,0,0,0-.4267-1.6682,1.6036,1.6036,0,0,0-1.4077-.2162Q4.5217,13.1645,3.89,13.2848Z"/>
    <path class="cls-1" d="M11.3119,6.3916a5.3812,5.3812,0,0,1,1.1149-3.5534,4.7547,4.7547,0,0,1,3.22-1.6059,3.7929,3.7929,0,0,1,3.2256.819,4.3447,4.3447,0,0,1,1.12,3.2805v9.4639a5.1834,5.1834,0,0,1-1.12,3.5056,4.8383,4.8383,0,0,1-3.2256,1.5472,3.8572,3.8572,0,0,1-3.22-.76,4.1931,4.1931,0,0,1-1.1149-3.2328Q11.3119,11.1235,11.3119,6.3916Zm2.8543,9.25a1.74,1.74,0,0,0,.4024,1.339,1.3212,1.3212,0,0,0,1.0784.2678,1.6608,1.6608,0,0,0,1.079-.5312,2.1178,2.1178,0,0,0,.403-1.4374V5.4516a1.759,1.759,0,0,0-.403-1.3444,1.3157,1.3157,0,0,0-1.079-.2749,1.6523,1.6523,0,0,0-1.0784.5383,2.1433,2.1433,0,0,0-.4024,1.4427Q14.1662,10.7274,14.1662,15.6415Z"/>
    <path class="cls-1" d="M21.6075,5.182a5.1061,5.1061,0,0,1,1.12-3.4883A4.4884,4.4884,0,0,1,25.9626.2753,3.9881,3.9881,0,0,1,29.2,1.282a4.5663,4.5663,0,0,1,1.1233,3.3456v9.4639A4.9212,4.9212,0,0,1,29.2,17.532a4.5656,4.5656,0,0,1-3.2374,1.36,4.0547,4.0547,0,0,1-3.2346-.9479,4.4053,4.4053,0,0,1-1.12-3.2978V5.182Zm2.8679,9.4163a1.8205,1.8205,0,0,0,.4042,1.3625,1.39,1.39,0,0,0,1.083.3306,1.5668,1.5668,0,0,0,1.0833-.4684,2.0175,2.0175,0,0,0,.4045-1.4139V4.581a1.8409,1.8409,0,0,0-.4045-1.3678,1.3841,1.3841,0,0,0-1.0833-.3377,1.559,1.559,0,0,0-1.083.4755A2.041,2.041,0,0,0,24.4754,4.77v9.8281Z"/>
    <path class="cls-1" d="M32.1778,0.1965q1.437-.0413,2.8744-0.0595,0,7.8,0,15.6,2.3652-.03,4.7306.0028v2.6q-3.8025-.0526-7.605.0567v-18.2Z"/>
    <path class="cls-1" d="M43.9633,8.3329q1.8547,0.069,3.7081.1766,0,1.3,0,2.6-1.8533-.1076-3.7081-0.1766,0,3.7571,0,7.5142-1.4367-.0535-2.8739-0.0838,0-9.1,0-18.2,3.8022,0.08,7.6.3224,0,1.3,0,2.6-2.3618-.1506-4.7261-0.2386Q43.9633,5.59,43.9633,8.3329Z"/>
    <path class="cls-1" d="M50.0722,0.5786q1.4349,0.1027,2.8685.2285v15.6q2.3585,0.207,4.7126.4765v2.6q-3.7845-.4334-7.5811-0.705v-18.2Z"/>
    <path class="cls-1" d="M58.952,1.4371q1.43,0.1743,2.8572.3718v18.2q-1.4275-.1974-2.8572-0.3718v-18.2Z"/>
    <path class="cls-1" d="M73.3625,3.7949q-1.48,4.1155-2.9631,8.2564,1.5866,4.9787,3.169,9.9863-1.492-.309-2.9878-0.5923-1.1611-3.821-2.3242-7.6264-1.1753,3.3945-2.3526,6.8049-1.3333-.216-2.669-0.4117,1.5947-4.4462,3.1861-8.8636-1.4879-4.6657-2.9787-9.3061,1.4777,0.2183,2.9525.4614,1.0739,3.531,2.1461,7.0752Q69.6385,6.42,70.7346,3.2744,72.05,3.5247,73.3625,3.7949Z"/>
  </g>
</svg>
